<svg width="12.5%" height="12.5%" viewBox="64 64 896 896" xmlns="http://www.w3.org/2000/svg" xmlns:xlink="http://www.w3.org/1999/xlink">
  <path d="M960,328L960,832C960,849 956.667,865.25 950,880.75C943.333,896.25 934.333,909.833 923,921.5C911.667,933.167 898.417,942.5 883.25,949.5C868.083,956.5 851.833,960 834.5,960L192,960C175,960 158.75,956.667 143.25,950C127.75,943.333 114.167,934.333 102.5,923C90.8333,911.667 81.5,898.417 74.5,883.25C67.5,868.083 64,851.833 64,834.5L64,192C64,175 67.3333,158.75 74,143.25C80.6667,127.75 89.6667,114.167 101,102.5C112.333,90.8334 125.583,81.5001 140.75,74.5C155.917,67.5001 172.167,64.0001 189.5,64L696,64C713,64.0001 729.333,67.2501 745,73.75C760.667,80.2501 774.5,89.5001 786.5,101.5L922.5,237.5C934.5,249.5 943.75,263.333 950.25,279C956.75,294.667 960,311 960,328ZM896,328C896,310 889.833,294.833 877.5,282.5L741.5,146.5C731.167,136.167 718.667,130.167 704,128.5L704,288C704,301 701.5,313.333 696.5,325C691.5,336.667 684.583,346.917 675.75,355.75C666.917,364.583 656.667,371.5 645,376.5C633.333,381.5 621,384 608,384L352,384C339,384 326.667,381.5 315,376.5C303.333,371.5 293.083,364.583 284.25,355.75C275.417,346.917 268.5,336.667 263.5,325C258.5,313.333 256,301 256,288L256,128L192,128C183,128 174.667,129.667 167,133C159.333,136.333 152.583,140.917 146.75,146.75C140.917,152.583 136.333,159.333 133,167C129.667,174.667 128,183 128,192L128,832C128,841 129.667,849.417 133,857.25C136.333,865.083 140.833,871.833 146.5,877.5C152.167,883.167 158.917,887.667 166.75,891C174.583,894.333 183,896 192,896L192,608C192,595 194.5,582.667 199.5,571C204.5,559.333 211.417,549.083 220.25,540.25C229.083,531.417 239.333,524.5 251,519.5C262.667,514.5 275,512 288,512L736,512C749,512 761.333,514.5 773,519.5C784.667,524.5 794.917,531.417 803.75,540.25C812.583,549.083 819.5,559.333 824.5,571C829.5,582.667 832,595 832,608L832,896C841,896 849.333,894.333 857,891C864.667,887.667 871.417,883.083 877.25,877.25C883.083,871.417 887.667,864.667 891,857C894.333,849.333 896,841 896,832ZM320,128L320,288C320,296.667 323.167,304.167 329.5,310.5C335.833,316.833 343.333,320 352,320L608,320C616.667,320 624.167,316.833 630.5,310.5C636.833,304.167 640,296.667 640,288L640,128ZM768,896L768,608C768,599.333 764.833,591.833 758.5,585.5C752.167,579.167 744.667,576 736,576L288,576C279.333,576 271.833,579.167 265.5,585.5C259.167,591.833 256,599.333 256,608L256,896Z" fill="#ffffff"/>
</svg>