<svg width="12.5%" height="12.5%" viewBox="128 128 704 704" xmlns="http://www.w3.org/2000/svg" xmlns:xlink="http://www.w3.org/1999/xlink">
  <path d="M525,480L822.5,777.5C828.833,783.833 832,791.333 832,800C832,808.667 828.833,816.167 822.5,822.5C816.167,828.833 808.667,832 800,832C791.333,832 783.833,828.833 777.5,822.5L480,525L182.5,822.5C176.167,828.833 168.667,832 160,832C151.333,832 143.833,828.833 137.5,822.5C131.167,816.167 128,808.667 128,800C128,791.333 131.167,783.833 137.5,777.5L435,480L137.5,182.5C131.167,176.167 128,168.667 128,160C128,151.333 131.167,143.833 137.5,137.5C143.833,131.167 151.333,128 160,128C168.667,128 176.167,131.167 182.5,137.5L480,435L777.5,137.5C783.833,131.167 791.333,128 800,128C808.667,128 816.167,131.167 822.5,137.5C828.833,143.833 832,151.333 832,160C832,168.667 828.833,176.167 822.5,182.5Z" fill="#ffffff"/>
</svg>