<svg width="12.5%" height="12.5%" viewBox="64 0 832 1024" xmlns="http://www.w3.org/2000/svg" xmlns:xlink="http://www.w3.org/1999/xlink">
  <path d="M896,32L896,352C896,360.667 892.833,368.167 886.5,374.5C880.167,380.833 872.667,384 864,384L544,384C535.333,384 527.833,380.833 521.5,374.5C515.167,368.167 512,360.667 512,352C512,343.333 515.167,335.833 521.5,329.5C527.833,323.167 535.333,320 544,320L784,320L548,123C524,103 497.583,88.1667 468.75,78.5C439.917,68.8334 410,64.0001 379,64C356.667,64.0001 335,67.0834 314,73.25C293,79.4167 273.167,88.0834 254.5,99.25C235.833,110.417 218.75,123.75 203.25,139.25C187.75,154.75 174.417,171.833 163.25,190.5C152.083,209.167 143.417,229 137.25,250C131.083,271 128,292.667 128,315C128,355 135.667,392.167 151,426.5C166.333,460.833 189.5,491 220.5,517L756.5,967.5C764.167,974.167 768,982.333 768,992C768,1000.67 764.833,1008.17 758.5,1014.5C752.167,1020.83 744.667,1024 736,1024C728.333,1024 721.5,1021.5 715.5,1016.5L179.5,566C142.167,534.667 113.583,498 93.75,456C73.9167,414 64,368.667 64,320C64,275.667 72.3333,234.083 89,195.25C105.667,156.417 128.5,122.5 157.5,93.5C186.5,64.5 220.417,41.6667 259.25,25C298.083,8.33337 339.667,0 384,0C421.333,0 457.583,6.33337 492.75,19C527.917,31.6667 559.833,50 588.5,74L832,276.5L832,32C832,23.3334 835.167,15.8334 841.5,9.5C847.833,3.16669 855.333,0 864,0C872.667,0 880.167,3.16669 886.5,9.5C892.833,15.8334 896,23.3334 896,32Z" fill="#ffffff"/>
</svg>