<svg width="12.5%" height="12.5%" viewBox="128 0 832 1024" xmlns="http://www.w3.org/2000/svg" xmlns:xlink="http://www.w3.org/1999/xlink">
  <path d="M960,320C960,368 949.917,413.25 929.75,455.75C909.583,498.25 881.167,535 844.5,566L308.5,1016.5C302.5,1021.5 295.667,1024 288,1024C279.333,1024 271.833,1020.83 265.5,1014.5C259.167,1008.17 256,1000.67 256,992C256,987.333 257,982.833 259,978.5C261,974.167 263.833,970.5 267.5,967.5L803.5,517C834.5,491 857.667,460.833 873,426.5C888.333,392.167 896,355 896,315C896,292.667 892.917,271 886.75,250C880.583,229 871.917,209.167 860.75,190.5C849.583,171.833 836.25,154.75 820.75,139.25C805.25,123.75 788.167,110.417 769.5,99.25C750.833,88.0834 731,79.4167 710,73.25C689,67.0834 667.333,64.0001 645,64C613.667,64.0001 583.75,68.8334 555.25,78.5C526.75,88.1667 500.5,103 476.5,123L240,320L480,320C488.667,320 496.167,323.167 502.5,329.5C508.833,335.833 512,343.333 512,352C512,360.667 508.833,368.167 502.5,374.5C496.167,380.833 488.667,384 480,384L160,384C151.333,384 143.833,380.833 137.5,374.5C131.167,368.167 128,360.667 128,352L128,32C128,23.3334 131.167,15.8334 137.5,9.5C143.833,3.16669 151.333,0 160,0C168.667,0 176.167,3.16669 182.5,9.5C188.833,15.8334 192,23.3334 192,32L192,276.5L435.5,74C464.167,50 496.083,31.6667 531.25,19C566.417,6.33337 602.667,0 640,0C684.333,0 725.917,8.33337 764.75,25C803.583,41.6667 837.5,64.5 866.5,93.5C895.5,122.5 918.333,156.417 935,195.25C951.667,234.083 960,275.667 960,320Z" fill="#ffffff"/>
</svg>