<svg height="100%" viewBox="0 128 1024 832" width="100%" xmlns="http://www.w3.org/2000/svg" xmlns:xlink="http://www.w3.org/1999/xlink">
  <path d="M867.5,128C888.5,128 908.5,132.25 927.5,140.75C946.5,149.25 963.083,160.583 977.25,174.75C991.417,188.917 1002.75,205.5 1011.25,224.5C1019.75,243.5 1024,263.5 1024,284.5L1024,803.5C1024,824.5 1019.75,844.5 1011.25,863.5C1002.75,882.5 991.417,899.083 977.25,913.25C963.083,927.417 946.5,938.75 927.5,947.25C908.5,955.75 888.5,960 867.5,960L156.5,960C135.5,960 115.5,955.75 96.5,947.25C77.5,938.75 60.9167,927.417 46.75,913.25C32.5833,899.083 21.25,882.5 12.75,863.5C4.25,844.5 0,824.5 0,803.5L0,284.5C0,263.5 4.25,243.5 12.75,224.5C21.25,205.5 32.5833,188.917 46.75,174.75C60.9167,160.583 77.5,149.25 96.5,140.75C115.5,132.25 135.5,128 156.5,128ZM160,192C147,192 134.667,194.5 123,199.5C111.333,204.5 101.083,211.417 92.25,220.25C83.4167,229.083 76.5,239.333 71.5,251C66.5,262.667 64,275 64,288L64,302L512,570.5L960,302L960,288C960,275 957.5,262.667 952.5,251C947.5,239.333 940.583,229.083 931.75,220.25C922.917,211.417 912.667,204.5 901,199.5C889.333,194.5 877,192 864,192ZM864,896C877,896 889.333,893.5 901,888.5C912.667,883.5 922.917,876.583 931.75,867.75C940.583,858.917 947.5,848.667 952.5,837C957.5,825.333 960,813 960,800L960,376.5L528.5,635.5C523.5,638.5 518,640 512,640C506,640 500.5,638.5 495.5,635.5L64,376.5L64,800C64,813 66.5,825.333 71.5,837C76.5,848.667 83.4167,858.917 92.25,867.75C101.083,876.583 111.333,883.5 123,888.5C134.667,893.5 147,896 160,896Z" fill="#FFFFFF" fill-opacity="1">
  </path>
</svg>