<svg width="12.5%" height="12.5%" viewBox="0 128 1024 768" xmlns="http://www.w3.org/2000/svg" xmlns:xlink="http://www.w3.org/1999/xlink">
  <path d="M1024,519.5L1024,770.5C1024,787.167 1020.58,803.083 1013.75,818.25C1006.92,833.417 997.75,846.75 986.25,858.25C974.75,869.75 961.417,878.917 946.25,885.75C931.083,892.583 915.167,896 898.5,896L125.5,896C108.833,896 92.9167,892.583 77.75,885.75C62.5833,878.917 49.25,869.75 37.75,858.25C26.25,846.75 17.0833,833.417 10.25,818.25C3.41667,803.083 0,787.167 0,770.5L0,253.5C0,236.833 3.41667,220.917 10.25,205.75C17.0833,190.583 26.25,177.25 37.75,165.75C49.25,154.25 62.5833,145.083 77.75,138.25C92.9167,131.417 108.833,128 125.5,128L632.5,128C649.5,128 665.833,131.25 681.5,137.75C697.167,144.25 711,153.5 723,165.5L986.5,429C998.5,441 1007.75,454.833 1014.25,470.5C1020.75,486.167 1024,502.5 1024,519.5ZM448,832L448,192L128,192C119,192 110.667,193.667 103,197C95.3333,200.333 88.5833,204.917 82.75,210.75C76.9167,216.583 72.3333,223.333 69,231C65.6667,238.667 64,247 64,256L64,768C64,777 65.6667,785.417 69,793.25C72.3333,801.083 76.8333,807.833 82.5,813.5C88.1667,819.167 94.9167,823.667 102.75,827C110.583,830.333 119,832 128,832ZM960,519.5C960,516.167 959.833,513.667 959.5,512L765.5,512C748.167,512 731.917,508.5 716.75,501.5C701.583,494.5 688.333,485.167 677,473.5C665.667,461.833 656.667,448.25 650,432.75C643.333,417.25 640,401 640,384L640,192.5C638.333,192.167 635.833,192 632.5,192L512,192L512,832L896,832C905,832 913.333,830.333 921,827C928.667,823.667 935.417,819.083 941.25,813.25C947.083,807.417 951.667,800.667 955,793C958.333,785.333 960,777 960,768ZM704,237L704,384C704,393 705.667,401.417 709,409.25C712.333,417.083 716.833,423.833 722.5,429.5C728.167,435.167 734.917,439.667 742.75,443C750.583,446.333 759,448 768,448L915,448Z" fill="#ffffff"/>
</svg>