<svg width="12.5%" height="12.5%" viewBox="0 128 1024 768" xmlns="http://www.w3.org/2000/svg" xmlns:xlink="http://www.w3.org/1999/xlink">
  <path d="M156.5,896C135.5,896 115.5,891.75 96.5,883.25C77.5,874.75 60.9167,863.417 46.75,849.25C32.5833,835.083 21.25,818.5 12.75,799.5C4.25,780.5 0,760.5 0,739.5L0,284.5C0,263.5 4.25,243.5 12.75,224.5C21.25,205.5 32.5833,188.917 46.75,174.75C60.9167,160.583 77.5,149.25 96.5,140.75C115.5,132.25 135.5,128 156.5,128L867.5,128C888.5,128 908.5,132.25 927.5,140.75C946.5,149.25 963.083,160.583 977.25,174.75C991.417,188.917 1002.75,205.5 1011.25,224.5C1019.75,243.5 1024,263.5 1024,284.5L1024,739.5C1024,760.5 1019.75,780.5 1011.25,799.5C1002.75,818.5 991.417,835.083 977.25,849.25C963.083,863.417 946.5,874.75 927.5,883.25C908.5,891.75 888.5,896 867.5,896ZM640,832L640,192L160,192C147,192 134.667,194.5 123,199.5C111.333,204.5 101.083,211.417 92.25,220.25C83.4167,229.083 76.5,239.333 71.5,251C66.5,262.667 64,275 64,288L64,736C64,749 66.5,761.333 71.5,773C76.5,784.667 83.4167,794.917 92.25,803.75C101.083,812.583 111.333,819.5 123,824.5C134.667,829.5 147,832 160,832ZM864,832C877,832 889.333,829.5 901,824.5C912.667,819.5 922.917,812.583 931.75,803.75C940.583,794.917 947.5,784.667 952.5,773C957.5,761.333 960,749 960,736L960,288C960,275 957.5,262.667 952.5,251C947.5,239.333 940.583,229.083 931.75,220.25C922.917,211.417 912.667,204.5 901,199.5C889.333,194.5 877,192 864,192L704,192L704,832ZM128,480C128,471.333 131.167,463.833 137.5,457.5L265.5,329.5C271.833,323.167 279.333,320 288,320C296.667,320 304.167,323.167 310.5,329.5C316.833,335.833 320,343.333 320,352C320,360.667 316.833,368.167 310.5,374.5L237.5,448L544,448C552.667,448 560.167,451.167 566.5,457.5C572.833,463.833 576,471.333 576,480C576,488.667 572.833,496.167 566.5,502.5C560.167,508.833 552.667,512 544,512L237.5,512L310.5,585.5C316.833,591.833 320,599.333 320,608C320,616.667 316.833,624.167 310.5,630.5C304.167,636.833 296.667,640 288,640C279.333,640 271.833,636.833 265.5,630.5L137.5,502.5C131.167,496.167 128,488.667 128,480Z" fill="#ffffff"/>
</svg>