<svg width="12.5%" height="12.5%" viewBox="128 0 768 1024" xmlns="http://www.w3.org/2000/svg" xmlns:xlink="http://www.w3.org/1999/xlink">
  <path d="M253.5,1024C236.833,1024 220.917,1020.58 205.75,1013.75C190.583,1006.92 177.25,997.75 165.75,986.25C154.25,974.75 145.083,961.417 138.25,946.25C131.417,931.083 128,915.167 128,898.5L128,125.5C128,108.833 131.417,92.9167 138.25,77.75C145.083,62.5834 154.25,49.2501 165.75,37.75C177.25,26.2501 190.583,17.0834 205.75,10.25C220.917,3.41669 236.833,0 253.5,0L512,0L512,258.5C512,275.833 515.5,292.083 522.5,307.25C529.5,322.417 538.833,335.667 550.5,347C562.167,358.333 575.75,367.333 591.25,374C606.75,380.667 623,384 640,384L896,384L896,898.5C896,915.167 892.583,931.083 885.75,946.25C878.917,961.417 869.75,974.75 858.25,986.25C846.75,997.75 833.417,1006.92 818.25,1013.75C803.083,1020.58 787.167,1024 770.5,1024ZM640,320C631,320 622.583,318.333 614.75,315C606.917,311.667 600.167,307.167 594.5,301.5C588.833,295.833 584.333,289.083 581,281.25C577.667,273.417 576,265 576,256L576,18.5L877.5,320Z" fill="#ffffff"/>
</svg>