<svg width="12.5%" height="12.5%" viewBox="64 64 896 896" xmlns="http://www.w3.org/2000/svg" xmlns:xlink="http://www.w3.org/1999/xlink">
  <path d="M160,448C147,448 134.667,445.5 123,440.5C111.333,435.5 101.083,428.583 92.25,419.75C83.4167,410.917 76.5,400.667 71.5,389C66.5,377.333 64,365 64,352L64,160C64,147 66.5,134.667 71.5,123C76.5,111.333 83.4167,101.083 92.25,92.25C101.083,83.4167 111.333,76.5001 123,71.5C134.667,66.5001 147,64.0001 160,64L352,64C365,64.0001 377.333,66.5001 389,71.5C400.667,76.5001 410.917,83.4167 419.75,92.25C428.583,101.083 435.5,111.333 440.5,123C445.5,134.667 448,147 448,160L448,352C448,365 445.5,377.333 440.5,389C435.5,400.667 428.583,410.917 419.75,419.75C410.917,428.583 400.667,435.5 389,440.5C377.333,445.5 365,448 352,448ZM672,448C659,448 646.667,445.5 635,440.5C623.333,435.5 613.083,428.583 604.25,419.75C595.417,410.917 588.5,400.667 583.5,389C578.5,377.333 576,365 576,352L576,160C576,147 578.5,134.667 583.5,123C588.5,111.333 595.417,101.083 604.25,92.25C613.083,83.4167 623.333,76.5001 635,71.5C646.667,66.5001 659,64.0001 672,64L864,64C877,64.0001 889.333,66.5001 901,71.5C912.667,76.5001 922.917,83.4167 931.75,92.25C940.583,101.083 947.5,111.333 952.5,123C957.5,134.667 960,147 960,160L960,352C960,365 957.5,377.333 952.5,389C947.5,400.667 940.583,410.917 931.75,419.75C922.917,428.583 912.667,435.5 901,440.5C889.333,445.5 877,448 864,448ZM352,384C360.667,384 368.167,380.833 374.5,374.5C380.833,368.167 384,360.667 384,352L384,160C384,151.333 380.833,143.833 374.5,137.5C368.167,131.167 360.667,128 352,128L160,128C151.333,128 143.833,131.167 137.5,137.5C131.167,143.833 128,151.333 128,160L128,352C128,360.667 131.167,368.167 137.5,374.5C143.833,380.833 151.333,384 160,384ZM864,384C872.667,384 880.167,380.833 886.5,374.5C892.833,368.167 896,360.667 896,352L896,160C896,151.333 892.833,143.833 886.5,137.5C880.167,131.167 872.667,128 864,128L672,128C663.333,128 655.833,131.167 649.5,137.5C643.167,143.833 640,151.333 640,160L640,352C640,360.667 643.167,368.167 649.5,374.5C655.833,380.833 663.333,384 672,384ZM160,960C147,960 134.667,957.5 123,952.5C111.333,947.5 101.083,940.583 92.25,931.75C83.4167,922.917 76.5,912.667 71.5,901C66.5,889.333 64,877 64,864L64,672C64,659 66.5,646.667 71.5,635C76.5,623.333 83.4167,613.083 92.25,604.25C101.083,595.417 111.333,588.5 123,583.5C134.667,578.5 147,576 160,576L352,576C365,576 377.333,578.5 389,583.5C400.667,588.5 410.917,595.417 419.75,604.25C428.583,613.083 435.5,623.333 440.5,635C445.5,646.667 448,659 448,672L448,864C448,877 445.5,889.333 440.5,901C435.5,912.667 428.583,922.917 419.75,931.75C410.917,940.583 400.667,947.5 389,952.5C377.333,957.5 365,960 352,960ZM672,960C659,960 646.667,957.5 635,952.5C623.333,947.5 613.083,940.583 604.25,931.75C595.417,922.917 588.5,912.667 583.5,901C578.5,889.333 576,877 576,864L576,672C576,659 578.5,646.667 583.5,635C588.5,623.333 595.417,613.083 604.25,604.25C613.083,595.417 623.333,588.5 635,583.5C646.667,578.5 659,576 672,576L864,576C877,576 889.333,578.5 901,583.5C912.667,588.5 922.917,595.417 931.75,604.25C940.583,613.083 947.5,623.333 952.5,635C957.5,646.667 960,659 960,672L960,864C960,877 957.5,889.333 952.5,901C947.5,912.667 940.583,922.917 931.75,931.75C922.917,940.583 912.667,947.5 901,952.5C889.333,957.5 877,960 864,960ZM352,896C360.667,896 368.167,892.833 374.5,886.5C380.833,880.167 384,872.667 384,864L384,672C384,663.333 380.833,655.833 374.5,649.5C368.167,643.167 360.667,640 352,640L160,640C151.333,640 143.833,643.167 137.5,649.5C131.167,655.833 128,663.333 128,672L128,864C128,872.667 131.167,880.167 137.5,886.5C143.833,892.833 151.333,896 160,896ZM864,896C872.667,896 880.167,892.833 886.5,886.5C892.833,880.167 896,872.667 896,864L896,672C896,663.333 892.833,655.833 886.5,649.5C880.167,643.167 872.667,640 864,640L672,640C663.333,640 655.833,643.167 649.5,649.5C643.167,655.833 640,663.333 640,672L640,864C640,872.667 643.167,880.167 649.5,886.5C655.833,892.833 663.333,896 672,896Z" fill="#ffffff"/>
</svg>