<svg width="12.5%" height="12.5%" viewBox="0 128 1024 704" xmlns="http://www.w3.org/2000/svg" xmlns:xlink="http://www.w3.org/1999/xlink">
  <path d="M1024,160L1024,800C1024,808.667 1020.83,816.167 1014.5,822.5C1008.17,828.833 1000.67,832 992,832C983.333,832 975.833,828.833 969.5,822.5C963.167,816.167 960,808.667 960,800L960,160C960,151.333 963.167,143.833 969.5,137.5C975.833,131.167 983.333,128 992,128C1000.67,128 1008.17,131.167 1014.5,137.5C1020.83,143.833 1024,151.333 1024,160ZM704,480C704,488.667 700.833,496.167 694.5,502.5L406.5,790.5C400.167,796.833 392.667,800 384,800C375.333,800 367.833,796.833 361.5,790.5C355.167,784.167 352,776.667 352,768C352,759.333 355.167,751.833 361.5,745.5L595,512L32,512C23.3333,512 15.8333,508.833 9.5,502.5C3.16667,496.167 0,488.667 0,480C0,471.333 3.16667,463.833 9.5,457.5C15.8333,451.167 23.3333,448 32,448L595,448L361.5,214.5C355.167,208.167 352,200.667 352,192C352,183.333 355.167,175.833 361.5,169.5C367.833,163.167 375.333,160 384,160C392.667,160 400.167,163.167 406.5,169.5L694.5,457.5C700.833,463.833 704,471.333 704,480ZM896,480C896,488.667 892.833,496.167 886.5,502.5L598.5,790.5C592.167,796.833 584.667,800 576,800C567.333,800 559.833,796.833 553.5,790.5C547.167,784.167 544,776.667 544,768C544,759.333 547.167,751.833 553.5,745.5L819,480L553.5,214.5C547.167,208.167 544,200.667 544,192C544,183.333 547.167,175.833 553.5,169.5C559.833,163.167 567.333,160 576,160C584.667,160 592.167,163.167 598.5,169.5L886.5,457.5C892.833,463.833 896,471.333 896,480Z" fill="#ffffff"/>
</svg>