<svg height="100%" viewBox="0 64 1024 896" width="100%" xmlns="http://www.w3.org/2000/svg" xmlns:xlink="http://www.w3.org/1999/xlink">
  <path d="M1024,438.5L1024,803.5C1024,824.5 1019.75,844.5 1011.25,863.5C1002.75,882.5 991.417,899.083 977.25,913.25C963.083,927.417 946.5,938.75 927.5,947.25C908.5,955.75 888.5,960 867.5,960L156.5,960C135.5,960 115.5,955.75 96.5,947.25C77.5,938.75 60.9167,927.417 46.75,913.25C32.5833,899.083 21.25,882.5 12.75,863.5C4.25,844.5 0,824.5 0,803.5L0,438.5C0,427.5 1.41667,416.667 4.25,406C7.08333,395.333 11.25,385.167 16.75,375.5C22.25,365.833 28.75,357 36.25,349C43.75,341 52.3333,334.167 62,328.5L495.5,68.5C500.5,65.5001 506,64.0001 512,64C518,64.0001 523.5,65.5001 528.5,68.5L962,328.5C971.333,334.167 979.833,341 987.5,349C995.167,357 1001.75,365.833 1007.25,375.5C1012.75,385.167 1016.92,395.333 1019.75,406C1022.58,416.667 1024,427.5 1024,438.5ZM512,133.5C441.667,175.5 372,217.25 303,258.75C234,300.25 164.5,342 94.5,384L512,634.5L929.5,384C859.5,342 790,300.25 721,258.75C652,217.25 582.333,175.5 512,133.5ZM864,896C877,896 889.333,893.5 901,888.5C912.667,883.5 922.917,876.583 931.75,867.75C940.583,858.917 947.5,848.667 952.5,837C957.5,825.333 960,813 960,800L960,440.5L528.5,699.5C523.5,702.5 518,704 512,704C506,704 500.5,702.5 495.5,699.5L64,440.5L64,800C64,813 66.5,825.333 71.5,837C76.5,848.667 83.4167,858.917 92.25,867.75C101.083,876.583 111.333,883.5 123,888.5C134.667,893.5 147,896 160,896Z" fill="#FFFFFF" fill-opacity="1">
  </path>
</svg>