<svg width="12.5%" height="12.5%" viewBox="0 192 1024 576" xmlns="http://www.w3.org/2000/svg" xmlns:xlink="http://www.w3.org/1999/xlink">
  <path d="M288,768C248.333,768 211,760.417 176,745.25C141,730.083 110.5,709.5 84.5,683.5C58.5,657.5 37.9167,627 22.75,592C7.58333,557 0,519.667 0,480C0,440.333 7.58333,403 22.75,368C37.9167,333 58.5,302.5 84.5,276.5C110.5,250.5 141,229.917 176,214.75C211,199.583 248.333,192 288,192L416,192C424.667,192 432.167,195.167 438.5,201.5C444.833,207.833 448,215.333 448,224C448,232.667 444.833,240.167 438.5,246.5C432.167,252.833 424.667,256 416,256L288,256C257,256 227.917,261.833 200.75,273.5C173.583,285.167 149.833,301.167 129.5,321.5C109.167,341.833 93.1667,365.583 81.5,392.75C69.8333,419.917 64,449 64,480C64,511 69.8333,540.083 81.5,567.25C93.1667,594.417 109.167,618.167 129.5,638.5C149.833,658.833 173.583,674.833 200.75,686.5C227.917,698.167 257,704 288,704L416,704C424.667,704 432.167,707.167 438.5,713.5C444.833,719.833 448,727.333 448,736C448,744.667 444.833,752.167 438.5,758.5C432.167,764.833 424.667,768 416,768ZM608,768C599.333,768 591.833,764.833 585.5,758.5C579.167,752.167 576,744.667 576,736C576,727.333 579.167,719.833 585.5,713.5C591.833,707.167 599.333,704 608,704L736,704C767,704 796.083,698.167 823.25,686.5C850.417,674.833 874.167,658.833 894.5,638.5C914.833,618.167 930.833,594.417 942.5,567.25C954.167,540.083 960,511 960,480C960,449 954.167,419.917 942.5,392.75C930.833,365.583 914.833,341.833 894.5,321.5C874.167,301.167 850.417,285.167 823.25,273.5C796.083,261.833 767,256 736,256L608,256C599.333,256 591.833,252.833 585.5,246.5C579.167,240.167 576,232.667 576,224C576,215.333 579.167,207.833 585.5,201.5C591.833,195.167 599.333,192 608,192L736,192C775.667,192 813,199.583 848,214.75C883,229.917 913.5,250.5 939.5,276.5C965.5,302.5 986.083,333 1001.25,368C1016.42,403 1024,440.333 1024,480C1024,519.667 1016.42,557 1001.25,592C986.083,627 965.5,657.5 939.5,683.5C913.5,709.5 883,730.083 848,745.25C813,760.417 775.667,768 736,768ZM284.5,512C275.833,512 268.917,508.667 263.75,502C258.583,495.333 256,488 256,480C256,472 258.583,464.667 263.75,458C268.917,451.333 275.833,448 284.5,448L739.5,448C748.167,448 755.083,451.333 760.25,458C765.417,464.667 768,472 768,480C768,488 765.417,495.333 760.25,502C755.083,508.667 748.167,512 739.5,512Z" fill="#ffffff"/>
</svg>