<svg width="12.5%" height="12.5%" viewBox="0 192 1024 576" xmlns="http://www.w3.org/2000/svg" xmlns:xlink="http://www.w3.org/1999/xlink">
  <path d="M416,256C407.333,256 399.833,252.833 393.5,246.5C387.167,240.167 384,232.667 384,224C384,215.333 387.167,207.833 393.5,201.5C399.833,195.167 407.333,192 416,192L992,192C1000.67,192 1008.17,195.167 1014.5,201.5C1020.83,207.833 1024,215.333 1024,224C1024,232.667 1020.83,240.167 1014.5,246.5C1008.17,252.833 1000.67,256 992,256ZM0,224C0,215.333 3.16667,207.833 9.5,201.5C15.8333,195.167 23.3333,192 32,192C40.6667,192 48.1667,195.167 54.5,201.5L160,306.5L265.5,201.5C271.833,195.167 279.333,192 288,192C296.667,192 304.167,195.167 310.5,201.5C316.833,207.833 320,215.333 320,224C320,232.667 316.833,240.167 310.5,246.5L182.5,374.5C176.167,380.833 168.667,384 160,384C151.333,384 143.833,380.833 137.5,374.5L9.5,246.5C3.16667,240.167 0,232.667 0,224ZM416,512C407.333,512 399.833,508.833 393.5,502.5C387.167,496.167 384,488.667 384,480C384,471.333 387.167,463.833 393.5,457.5C399.833,451.167 407.333,448 416,448L992,448C1000.67,448 1008.17,451.167 1014.5,457.5C1020.83,463.833 1024,471.333 1024,480C1024,488.667 1020.83,496.167 1014.5,502.5C1008.17,508.833 1000.67,512 992,512ZM416,768C407.333,768 399.833,764.833 393.5,758.5C387.167,752.167 384,744.667 384,736C384,727.333 387.167,719.833 393.5,713.5C399.833,707.167 407.333,704 416,704L992,704C1000.67,704 1008.17,707.167 1014.5,713.5C1020.83,719.833 1024,727.333 1024,736C1024,744.667 1020.83,752.167 1014.5,758.5C1008.17,764.833 1000.67,768 992,768Z" fill="#ffffff"/>
</svg>