<svg width="12.5%" height="12.5%" viewBox="0 384 1024 192" xmlns="http://www.w3.org/2000/svg" xmlns:xlink="http://www.w3.org/1999/xlink">
  <path d="M160,461L54.5,566.5C48.1667,572.833 40.6667,576 32,576C23.3333,576 15.8333,572.833 9.5,566.5C3.16667,560.167 0,552.667 0,544C0,535.333 3.16667,527.833 9.5,521.5L137.5,393.5C143.833,387.167 151.333,384 160,384C168.667,384 176.167,387.167 182.5,393.5L310.5,521.5C316.833,527.833 320,535.333 320,544C320,552.667 316.833,560.167 310.5,566.5C304.167,572.833 296.667,576 288,576C279.333,576 271.833,572.833 265.5,566.5ZM416,512C407.333,512 399.833,508.833 393.5,502.5C387.167,496.167 384,488.667 384,480C384,471.333 387.167,463.833 393.5,457.5C399.833,451.167 407.333,448 416,448L992,448C1000.67,448 1008.17,451.167 1014.5,457.5C1020.83,463.833 1024,471.333 1024,480C1024,488.667 1020.83,496.167 1014.5,502.5C1008.17,508.833 1000.67,512 992,512Z" fill="#ffffff"/>
</svg>