<svg width="12.5%" height="12.5%" viewBox="64 0 896 1024" xmlns="http://www.w3.org/2000/svg" xmlns:xlink="http://www.w3.org/1999/xlink">
  <path d="M64,828C64,803 69.0833,779.083 79.25,756.25C89.4167,733.417 103.083,713.417 120.25,696.25C137.417,679.083 157.417,665.417 180.25,655.25C203.083,645.083 227,640 252,640C270,640 287.083,642 303.25,646C319.417,650 335.333,656.333 351,665L474,475.5L197,49.5C193.667,44.8334 192,39.1667 192,32.5C192,23.8334 195,16.25 201,9.75C207,3.25 214.5,0 223.5,0C228.833,0 234,1.25 239,3.75C244,6.25 248,9.83337 251,14.5L673,665C689,656.333 705,650 721,646C737,642 754,640 772,640C798,640 822.417,645.167 845.25,655.5C868.083,665.833 888,679.75 905,697.25C922,714.75 935.417,735.167 945.25,758.5C955.083,781.833 960,806.333 960,832C960,858.667 955,883.667 945,907C935,930.333 921.333,950.667 904,968C886.667,985.333 866.333,999 843,1009C819.667,1019 794.667,1024 768,1024C742.333,1024 717.833,1019.08 694.5,1009.25C671.167,999.417 650.75,986 633.25,969C615.75,952 601.833,932.083 591.5,909.25C581.167,886.417 576,862 576,836C576,811.667 579.833,788.5 587.5,766.5C595.167,744.5 607.167,724.167 623.5,705.5L512,534L400.5,705.5C416.833,724.167 428.833,744.5 436.5,766.5C444.167,788.5 448,811.667 448,836C448,862 442.833,886.417 432.5,909.25C422.167,932.083 408.25,952 390.75,969C373.25,986 352.833,999.417 329.5,1009.25C306.167,1019.08 281.667,1024 256,1024C228.333,1024 202.833,1018.92 179.5,1008.75C156.167,998.583 135.917,984.583 118.75,966.75C101.583,948.917 88.1667,928.083 78.5,904.25C68.8333,880.417 64,855 64,828ZM588.5,416.5L550,358L773,14.5C776,9.83337 780,6.25 785,3.75C790,1.25 795.167,0 800.5,0C809.5,0 817,3.25 823,9.75C829,16.25 832,23.8334 832,32.5C832,39.1667 830.333,44.8334 827,49.5ZM384,829.5C384,812.167 380.5,795.917 373.5,780.75C366.5,765.583 357.167,752.333 345.5,741C333.833,729.667 320.25,720.667 304.75,714C289.25,707.333 273,704 256,704C238.333,704 221.75,707.417 206.25,714.25C190.75,721.083 177.25,730.25 165.75,741.75C154.25,753.25 145.083,766.833 138.25,782.5C131.417,798.167 128,814.667 128,832C128,849.667 131.417,866.25 138.25,881.75C145.083,897.25 154.25,910.75 165.75,922.25C177.25,933.75 190.75,942.917 206.25,949.75C221.75,956.583 238.333,960 256,960C274,960 290.75,956.583 306.25,949.75C321.75,942.917 335.25,933.583 346.75,921.75C358.25,909.917 367.333,896.083 374,880.25C380.667,864.417 384,847.5 384,829.5ZM896,829.5C896,812.167 892.5,795.917 885.5,780.75C878.5,765.583 869.167,752.333 857.5,741C845.833,729.667 832.25,720.667 816.75,714C801.25,707.333 785,704 768,704C750.333,704 733.75,707.417 718.25,714.25C702.75,721.083 689.25,730.25 677.75,741.75C666.25,753.25 657.083,766.833 650.25,782.5C643.417,798.167 640,814.667 640,832C640,849.667 643.417,866.25 650.25,881.75C657.083,897.25 666.25,910.75 677.75,922.25C689.25,933.75 702.75,942.917 718.25,949.75C733.75,956.583 750.333,960 768,960C786,960 802.75,956.583 818.25,949.75C833.75,942.917 847.25,933.583 858.75,921.75C870.25,909.917 879.333,896.083 886,880.25C892.667,864.417 896,847.5 896,829.5Z" fill="#ffffff"/>
</svg>