<svg width="12.5%" height="12.5%" viewBox="64 0 896 1024" xmlns="http://www.w3.org/2000/svg" xmlns:xlink="http://www.w3.org/1999/xlink">
  <path d="M160,1024C147,1024 134.667,1021.5 123,1016.5C111.333,1011.5 101.083,1004.58 92.25,995.75C83.4167,986.917 76.5,976.667 71.5,965C66.5,953.333 64,941 64,928L64,160C64,147 66.5,134.667 71.5,123C76.5,111.333 83.4167,101.083 92.25,92.25C101.083,83.4167 111.333,76.5001 123,71.5C134.667,66.5001 147,64.0001 160,64L261.5,64C264.833,54.3334 269.5,45.5834 275.5,37.75C281.5,29.9167 288.5,23.1667 296.5,17.5C304.5,11.8334 313.167,7.5 322.5,4.5C331.833,1.5 341.667,0 352,0L544,0C554.333,0 564.167,1.5 573.5,4.5C582.833,7.5 591.5,11.8334 599.5,17.5C607.5,23.1667 614.5,29.9167 620.5,37.75C626.5,45.5834 631.167,54.3334 634.5,64L736,64C749,64.0001 761.333,66.5001 773,71.5C784.667,76.5001 794.917,83.4167 803.75,92.25C812.583,101.083 819.5,111.333 824.5,123C829.5,134.667 832,147 832,160L832,224C832,232.667 828.833,240.167 822.5,246.5C816.167,252.833 808.667,256 800,256C793,256 787.333,254.667 783,252C778.667,249.333 775.417,245.75 773.25,241.25C771.083,236.75 769.583,231.583 768.75,225.75C767.917,219.917 767.5,214 767.5,208C767.5,202.333 767.667,196.75 768,191.25C768.333,185.75 768.5,180.667 768.5,176C768.5,170 768.167,164.167 767.5,158.5C766.833,152.833 765.417,147.75 763.25,143.25C761.083,138.75 757.833,135.083 753.5,132.25C749.167,129.417 743.333,128 736,128L634.5,128C631.167,137.667 626.5,146.417 620.5,154.25C614.5,162.083 607.5,168.833 599.5,174.5C591.5,180.167 582.833,184.5 573.5,187.5C564.167,190.5 554.333,192 544,192L352,192C341.667,192 331.833,190.5 322.5,187.5C313.167,184.5 304.5,180.167 296.5,174.5C288.5,168.833 281.5,162.083 275.5,154.25C269.5,146.417 264.833,137.667 261.5,128L160,128C151.333,128 143.833,131.167 137.5,137.5C131.167,143.833 128,151.333 128,160L128,928C128,936.667 131.167,944.167 137.5,950.5C143.833,956.833 151.333,960 160,960L352,960C360.667,960 368.167,963.167 374.5,969.5C380.833,975.833 384,983.333 384,992C384,1000.67 380.833,1008.17 374.5,1014.5C368.167,1020.83 360.667,1024 352,1024ZM544,128C552.667,128 560.167,124.833 566.5,118.5C572.833,112.167 576,104.667 576,96C576,87.3334 572.833,79.8334 566.5,73.5C560.167,67.1667 552.667,64.0001 544,64L352,64C343.333,64.0001 335.833,67.1667 329.5,73.5C323.167,79.8334 320,87.3334 320,96C320,104.667 323.167,112.167 329.5,118.5C335.833,124.833 343.333,128 352,128ZM544,1024C531,1024 518.667,1021.5 507,1016.5C495.333,1011.5 485.083,1004.58 476.25,995.75C467.417,986.917 460.5,976.667 455.5,965C450.5,953.333 448,941 448,928L448,416C448,403 450.5,390.667 455.5,379C460.5,367.333 467.417,357.083 476.25,348.25C485.083,339.417 495.333,332.5 507,327.5C518.667,322.5 531,320 544,320L864,320C877,320 889.333,322.5 901,327.5C912.667,332.5 922.917,339.417 931.75,348.25C940.583,357.083 947.5,367.333 952.5,379C957.5,390.667 960,403 960,416L960,928C960,941 957.5,953.333 952.5,965C947.5,976.667 940.583,986.917 931.75,995.75C922.917,1004.58 912.667,1011.5 901,1016.5C889.333,1021.5 877,1024 864,1024ZM864,960C872.667,960 880.167,956.833 886.5,950.5C892.833,944.167 896,936.667 896,928L896,416C896,407.333 892.833,399.833 886.5,393.5C880.167,387.167 872.667,384 864,384L544,384C535.333,384 527.833,387.167 521.5,393.5C515.167,399.833 512,407.333 512,416L512,928C512,936.667 515.167,944.167 521.5,950.5C527.833,956.833 535.333,960 544,960Z" fill="#ffffff"/>
</svg>