<svg width="12.5%" height="12.5%" viewBox="64 64 896 896" xmlns="http://www.w3.org/2000/svg" xmlns:xlink="http://www.w3.org/1999/xlink">
  <path d="M540.5,768C519.5,768 499.5,763.75 480.5,755.25C461.5,746.75 444.917,735.417 430.75,721.25C416.583,707.083 405.25,690.5 396.75,671.5C388.25,652.5 384,632.5 384,611.5L384,220.5C384,199.5 388.25,179.5 396.75,160.5C405.25,141.5 416.583,124.917 430.75,110.75C444.917,96.5834 461.5,85.2501 480.5,76.75C499.5,68.2501 519.5,64.0001 540.5,64L803.5,64C824.5,64.0001 844.5,68.2501 863.5,76.75C882.5,85.2501 899.083,96.5834 913.25,110.75C927.417,124.917 938.75,141.5 947.25,160.5C955.75,179.5 960,199.5 960,220.5L960,611.5C960,632.5 955.75,652.5 947.25,671.5C938.75,690.5 927.417,707.083 913.25,721.25C899.083,735.417 882.5,746.75 863.5,755.25C844.5,763.75 824.5,768 803.5,768ZM800,704C813,704 825.333,701.5 837,696.5C848.667,691.5 858.917,684.583 867.75,675.75C876.583,666.917 883.5,656.667 888.5,645C893.5,633.333 896,621 896,608L896,224C896,211 893.5,198.667 888.5,187C883.5,175.333 876.583,165.083 867.75,156.25C858.917,147.417 848.667,140.5 837,135.5C825.333,130.5 813,128 800,128L544,128C531,128 518.667,130.5 507,135.5C495.333,140.5 485.083,147.417 476.25,156.25C467.417,165.083 460.5,175.333 455.5,187C450.5,198.667 448,211 448,224L448,608C448,621 450.5,633.333 455.5,645C460.5,656.667 467.417,666.917 476.25,675.75C485.083,684.583 495.333,691.5 507,696.5C518.667,701.5 531,704 544,704ZM220.5,960C199.5,960 179.5,955.75 160.5,947.25C141.5,938.75 124.917,927.417 110.75,913.25C96.5833,899.083 85.25,882.5 76.75,863.5C68.25,844.5 64,824.5 64,803.5L64,412.5C64,391.5 68.25,371.5 76.75,352.5C85.25,333.5 96.5833,316.917 110.75,302.75C124.917,288.583 141.5,277.25 160.5,268.75C179.5,260.25 199.5,256 220.5,256L320,256L320,320L224,320C211,320 198.667,322.5 187,327.5C175.333,332.5 165.083,339.417 156.25,348.25C147.417,357.083 140.5,367.333 135.5,379C130.5,390.667 128,403 128,416L128,800C128,813 130.5,825.333 135.5,837C140.5,848.667 147.417,858.917 156.25,867.75C165.083,876.583 175.333,883.5 187,888.5C198.667,893.5 211,896 224,896L480,896C490.333,896 500.167,894.5 509.5,891.5C518.833,888.5 527.5,884.167 535.5,878.5C543.5,872.833 550.5,866.083 556.5,858.25C562.5,850.417 567.167,841.667 570.5,832L637,832C633.333,850.333 626.583,867.333 616.75,883C606.917,898.667 595,912.167 581,923.5C567,934.833 551.333,943.75 534,950.25C516.667,956.75 498.667,960 480,960Z" fill="#ffffff"/>
</svg>