<svg width="12.5%" height="12.5%" viewBox="320 0 384 1024" xmlns="http://www.w3.org/2000/svg" xmlns:xlink="http://www.w3.org/1999/xlink">
  <path d="M320,188C320,162 325.167,137.583 335.5,114.75C345.833,91.9167 359.75,72.0001 377.25,55C394.75,38.0001 415.167,24.5834 438.5,14.75C461.833,4.91669 486.333,0 512,0C537.667,0 562.167,4.91669 585.5,14.75C608.833,24.5834 629.25,38.0001 646.75,55C664.25,72.0001 678.167,91.9167 688.5,114.75C698.833,137.583 704,162 704,188C704,224.333 701.833,260.333 697.5,296C693.167,331.667 687.167,367.167 679.5,402.5C671.833,438.833 663.833,475.333 655.5,512C647.167,548.667 637.167,584.667 625.5,620C621.167,632.667 615.75,644 609.25,654C602.75,664 594,673 583,681C562.333,696.333 538.667,704 512,704C486,704 462.333,696.333 441,681C430,673.333 421.25,664.417 414.75,654.25C408.25,644.083 402.833,632.667 398.5,620C386.833,584.667 376.75,548.667 368.25,512C359.75,475.333 351.667,438.667 344,402C336.667,366.667 330.833,331.25 326.5,295.75C322.167,260.25 320,224.333 320,188ZM640,189.5C640,172.167 636.5,155.917 629.5,140.75C622.5,125.583 613.167,112.333 601.5,101C589.833,89.6667 576.25,80.6667 560.75,74C545.25,67.3334 529,64.0001 512,64C495,64.0001 478.75,67.3334 463.25,74C447.75,80.6667 434.167,89.6667 422.5,101C410.833,112.333 401.5,125.583 394.5,140.75C387.5,155.917 384,172.167 384,189.5C384,219.167 385.667,248.75 389,278.25C392.333,307.75 396.75,337 402.25,366C407.75,395 414,423.917 421,452.75C428,481.583 435.167,510.333 442.5,539C445.167,549.667 447.833,560.25 450.5,570.75C453.167,581.25 456.333,591.667 460,602C464.333,613.667 470.833,622.917 479.5,629.75C488.167,636.583 499,640 512,640C524.667,640 535.417,636.583 544.25,629.75C553.083,622.917 559.833,613.667 564.5,602C568.167,593 571.083,583.667 573.25,574C575.417,564.333 577.833,554.833 580.5,545.5C588.167,516.5 595.583,487.333 602.75,458C609.917,428.667 616.25,399.083 621.75,369.25C627.25,339.417 631.667,309.5 635,279.5C638.333,249.5 640,219.5 640,189.5ZM384,893.5C384,876.167 387.5,859.917 394.5,844.75C401.5,829.583 410.833,816.333 422.5,805C434.167,793.667 447.75,784.667 463.25,778C478.75,771.333 495,768 512,768C529.333,768 545.833,771.417 561.5,778.25C577.167,785.083 590.75,794.25 602.25,805.75C613.75,817.25 622.917,830.833 629.75,846.5C636.583,862.167 640,878.667 640,896C640,913.667 636.583,930.25 629.75,945.75C622.917,961.25 613.75,974.75 602.25,986.25C590.75,997.75 577.167,1006.92 561.5,1013.75C545.833,1020.58 529.333,1024 512,1024C494,1024 477.167,1020.58 461.5,1013.75C445.833,1006.92 432.25,997.583 420.75,985.75C409.25,973.917 400.25,960.083 393.75,944.25C387.25,928.417 384,911.5 384,893.5ZM576,896C576,887.333 574.333,879.083 571,871.25C567.667,863.417 563.083,856.583 557.25,850.75C551.417,844.917 544.583,840.333 536.75,837C528.917,833.667 520.667,832 512,832C503,832 494.667,833.667 487,837C479.333,840.333 472.583,844.917 466.75,850.75C460.917,856.583 456.333,863.333 453,871C449.667,878.667 448,887 448,896C448,905 449.667,913.417 453,921.25C456.333,929.083 460.833,935.833 466.5,941.5C472.167,947.167 478.917,951.667 486.75,955C494.583,958.333 503,960 512,960C521,960 529.333,958.333 537,955C544.667,951.667 551.417,947.083 557.25,941.25C563.083,935.417 567.667,928.667 571,921C574.333,913.333 576,905 576,896Z" fill="#ffffff"/>
</svg>