<svg width="12.5%" height="12.5%" viewBox="0 128 960 832" xmlns="http://www.w3.org/2000/svg" xmlns:xlink="http://www.w3.org/1999/xlink">
  <path d="M772,128C797,128 820.917,133.083 843.75,143.25C866.583,153.417 886.583,167.083 903.75,184.25C920.917,201.417 934.583,221.417 944.75,244.25C954.917,267.083 960,291 960,316L960,708C960,733 954.917,756.917 944.75,779.75C934.583,802.583 920.917,822.583 903.75,839.75C886.583,856.917 866.583,870.583 843.75,880.75C820.917,890.917 797,896 772,896L576,896L576,832L770.5,832C787.167,832 803.083,828.583 818.25,821.75C833.417,814.917 846.75,805.75 858.25,794.25C869.75,782.75 878.917,769.417 885.75,754.25C892.583,739.083 896,723.167 896,706.5L896,317.5C896,300.833 892.583,284.917 885.75,269.75C878.917,254.583 869.75,241.25 858.25,229.75C846.75,218.25 833.417,209.083 818.25,202.25C803.083,195.417 787.167,192 770.5,192L189.5,192C172.833,192 156.917,195.417 141.75,202.25C126.583,209.083 113.25,218.25 101.75,229.75C90.25,241.25 81.0833,254.583 74.25,269.75C67.4167,284.917 64,300.833 64,317.5L64,706.5C64,723.833 67.5,740.083 74.5,755.25C81.5,770.417 90.8333,783.667 102.5,795C114.167,806.333 127.75,815.333 143.25,822C158.75,828.667 175,832 192,832L384,832L384,896L188,896C163,896 139.083,890.917 116.25,880.75C93.4167,870.583 73.4167,856.917 56.25,839.75C39.0833,822.583 25.4167,802.583 15.25,779.75C5.08333,756.917 0,733 0,708L0,316C0,291 5.08333,267.083 15.25,244.25C25.4167,221.417 39.0833,201.417 56.25,184.25C73.4167,167.083 93.4167,153.417 116.25,143.25C139.083,133.083 163,128 188,128ZM512,493L512,928C512,936.667 508.833,944.167 502.5,950.5C496.167,956.833 488.667,960 480,960C471.333,960 463.833,956.833 457.5,950.5C451.167,944.167 448,936.667 448,928L448,493L310.5,630.5C304.167,636.833 296.667,640 288,640C279.333,640 271.833,636.833 265.5,630.5C259.167,624.167 256,616.667 256,608C256,599.333 259.167,591.833 265.5,585.5L456,395C459.667,391.333 463.333,388.583 467,386.75C470.667,384.917 475,384 480,384C485,384 489.333,384.917 493,386.75C496.667,388.583 500.333,391.333 504,395L694.5,585.5C700.833,591.833 704,599.333 704,608C704,616.667 700.833,624.167 694.5,630.5C688.167,636.833 680.667,640 672,640C663.333,640 655.833,636.833 649.5,630.5Z" fill="#ffffff"/>
</svg>