<svg width="12.5%" height="12.5%" viewBox="32 96 960 832" xmlns="http://www.w3.org/2000/svg" xmlns:xlink="http://www.w3.org/1999/xlink">
  <path d="M157.5,928C140.833,928 124.917,924.583 109.75,917.75C94.5833,910.917 81.25,901.75 69.75,890.25C58.25,878.75 49.0833,865.417 42.25,850.25C35.4167,835.083 32,819.167 32,802.5L32,221.5C32,204.833 35.4167,188.917 42.25,173.75C49.0833,158.583 58.25,145.25 69.75,133.75C81.25,122.25 94.5833,113.083 109.75,106.25C124.917,99.4167 140.833,96 157.5,96L352,96C372,96 391.083,100.5 409.25,109.5C427.417,118.5 442.5,131 454.5,147C464.167,159.667 473.75,172.5 483.25,185.5C492.75,198.5 502.333,211.333 512,224L866.5,224C883.167,224 899.083,227.417 914.25,234.25C929.417,241.083 942.75,250.25 954.25,261.75C965.75,273.25 974.917,286.583 981.75,301.75C988.583,316.917 992,332.833 992,349.5L992,802.5C992,819.167 988.583,835.083 981.75,850.25C974.917,865.417 965.75,878.75 954.25,890.25C942.75,901.75 929.417,910.917 914.25,917.75C899.083,924.583 883.167,928 866.5,928Z" fill="#ffffff"/>
</svg>