<svg width="12.5%" height="12.5%" viewBox="15 192 994 640" xmlns="http://www.w3.org/2000/svg" xmlns:xlink="http://www.w3.org/1999/xlink">
  <path d="M15,609C15,607 15.3333,604.333 16,601C26.3333,562.333 39.9167,525.333 56.75,490C73.5833,454.667 93.5,421.833 116.5,391.5C139.5,361.167 165.25,333.75 193.75,309.25C222.25,284.75 253.167,263.75 286.5,246.25C319.833,228.75 355.417,215.333 393.25,206C431.083,196.667 470.667,192 512,192C560,192 606.25,198.833 650.75,212.5C695.25,226.167 736.833,245.333 775.5,270C814.167,294.667 849.333,324.25 881,358.75C912.667,393.25 939.5,431.5 961.5,473.5C964.833,479.833 969.167,489.167 974.5,501.5C979.833,513.833 985.083,526.833 990.25,540.5C995.417,554.167 999.833,567.25 1003.5,579.75C1007.17,592.25 1009,601.667 1009,608C1009,616.667 1005.83,624.167 999.5,630.5C993.167,636.833 985.667,640 977,640C968.333,640 961.833,637.75 957.5,633.25C953.167,628.75 949.333,622.833 946,615.5C942.333,607.833 939.667,599.833 938,591.5C936.333,583.167 934.167,575 931.5,567C923.833,542.667 913.417,518.667 900.25,495C887.083,471.333 872.5,449.5 856.5,429.5C835.167,402.167 811.5,377.75 785.5,356.25C759.5,334.75 731.667,316.583 702,301.75C672.333,286.917 641.167,275.583 608.5,267.75C575.833,259.917 542,256 507,256C465.667,256 425.833,262.167 387.5,274.5C349.167,286.833 313.333,303.917 280,325.75C246.667,347.583 216.333,373.583 189,403.75C161.667,433.917 138.5,466.833 119.5,502.5C117.167,506.833 114,513.333 110,522C106,530.667 102,539.833 98,549.5C94,559.167 90.5833,568.333 87.75,577C84.9167,585.667 83.5,592.167 83.5,596.5C83.5,601.5 82.5833,606.583 80.75,611.75C78.9167,616.917 76.4167,621.583 73.25,625.75C70.0833,629.917 66.25,633.417 61.75,636.25C57.25,639.083 52.3333,640.5 47,640.5C38.3333,640.5 30.8333,637.5 24.5,631.5C18.1667,625.5 15,618 15,609ZM288,604C288,574 294.083,545.667 306.25,519C318.417,492.333 334.75,469 355.25,449C375.75,429 399.5,413.167 426.5,401.5C453.5,389.833 482,384 512,384C542.667,384 571.583,389.917 598.75,401.75C625.917,413.583 649.667,429.667 670,450C690.333,470.333 706.417,494.083 718.25,521.25C730.083,548.417 736,577.333 736,608C736,638.667 730.083,667.583 718.25,694.75C706.417,721.917 690.333,745.667 670,766C649.667,786.333 625.917,802.417 598.75,814.25C571.583,826.083 542.667,832 512,832C480.333,832 450.833,826 423.5,814C396.167,802 372.5,785.667 352.5,765C332.5,744.333 316.75,720.167 305.25,692.5C293.75,664.833 288,635.333 288,604ZM672,604.5C672,582.833 667.667,562.5 659,543.5C650.333,524.5 638.667,507.917 624,493.75C609.333,479.583 592.333,468.417 573,460.25C553.667,452.083 533.333,448 512,448C489.667,448 468.833,452.167 449.5,460.5C430.167,468.833 413.25,480.25 398.75,494.75C384.25,509.25 372.833,526.167 364.5,545.5C356.167,564.833 352,585.667 352,608C352,630.333 356.167,651.167 364.5,670.5C372.833,689.833 384.25,706.75 398.75,721.25C413.25,735.75 430.167,747.167 449.5,755.5C468.833,763.833 489.667,768 512,768C535,768 556.25,763.75 575.75,755.25C595.25,746.75 612.083,735.083 626.25,720.25C640.417,705.417 651.583,688.083 659.75,668.25C667.917,648.417 672,627.167 672,604.5Z" fill="#ffffff"/>
</svg>