<svg width="12.5%" height="12.5%" viewBox="0 0 1024 1024" xmlns="http://www.w3.org/2000/svg" xmlns:xlink="http://www.w3.org/1999/xlink">
  <path d="M1024,32C1024,40.6667 1020.83,48.1667 1014.5,54.5L685,384L928,384C936.667,384 944.167,387.167 950.5,393.5C956.833,399.833 960,407.333 960,416C960,424.667 956.833,432.167 950.5,438.5C944.167,444.833 936.667,448 928,448L607.5,448C598.833,448 591.417,444.833 585.25,438.5C579.083,432.167 576,424.667 576,416L576,96C576,87.3334 579.167,79.8334 585.5,73.5C591.833,67.1667 599.333,64.0001 608,64C616.667,64.0001 624.167,67.1667 630.5,73.5C636.833,79.8334 640,87.3334 640,96L640,339L969.5,9.5C975.833,3.16669 983.333,0 992,0C1000.67,0 1008.17,3.16669 1014.5,9.5C1020.83,15.8334 1024,23.3334 1024,32ZM416,576C424.667,576 432.167,579.167 438.5,585.5C444.833,591.833 448,599.333 448,608L448,928C448,936.667 444.833,944.167 438.5,950.5C432.167,956.833 424.667,960 416,960C407.333,960 399.833,956.833 393.5,950.5C387.167,944.167 384,936.667 384,928L384,685L54.5,1014.5C48.1667,1020.83 40.6667,1024 32,1024C23.3333,1024 15.8333,1020.83 9.5,1014.5C3.16667,1008.17 0,1000.67 0,992C0,983.333 3.16667,975.833 9.5,969.5L339,640L96,640C87.3333,640 79.8333,636.833 73.5,630.5C67.1667,624.167 64,616.667 64,608C64,599.333 67.1667,591.833 73.5,585.5C79.8333,579.167 87.3333,576 96,576Z" fill="#ffffff"/>
</svg>