<svg width="12.5%" height="12.5%" viewBox="64 64 896 896" xmlns="http://www.w3.org/2000/svg" xmlns:xlink="http://www.w3.org/1999/xlink">
  <path d="M928,64C936.667,64.0001 944.167,67.1667 950.5,73.5C956.833,79.8334 960,87.3334 960,96L960,480C960,488.667 956.833,496.167 950.5,502.5C944.167,508.833 936.667,512 928,512C919.333,512 911.833,508.833 905.5,502.5C899.167,496.167 896,488.667 896,480L896,173L173,896L480,896C488.667,896 496.167,899.167 502.5,905.5C508.833,911.833 512,919.333 512,928C512,936.667 508.833,944.167 502.5,950.5C496.167,956.833 488.667,960 480,960L95.5,960C86.8333,960 79.4167,956.833 73.25,950.5C67.0833,944.167 64,936.667 64,928L64,544C64,535.333 67.1667,527.833 73.5,521.5C79.8333,515.167 87.3333,512 96,512C104.667,512 112.167,515.167 118.5,521.5C124.833,527.833 128,535.333 128,544L128,851L851,128L544,128C535.333,128 527.833,124.833 521.5,118.5C515.167,112.167 512,104.667 512,96C512,87.3334 515.167,79.8334 521.5,73.5C527.833,67.1667 535.333,64.0001 544,64Z" fill="#ffffff"/>
</svg>