<svg width="12.5%" height="12.5%" viewBox="0 64 1024 960" xmlns="http://www.w3.org/2000/svg" xmlns:xlink="http://www.w3.org/1999/xlink">
  <path d="M156.5,960C135.5,960 115.5,955.75 96.5,947.25C77.5,938.75 60.9167,927.417 46.75,913.25C32.5833,899.083 21.25,882.5 12.75,863.5C4.25,844.5 0,824.5 0,803.5L0,220.5C0,199.5 4.25,179.5 12.75,160.5C21.25,141.5 32.5833,124.917 46.75,110.75C60.9167,96.5834 77.5,85.2501 96.5,76.75C115.5,68.2501 135.5,64.0001 156.5,64L352,64C375,64.0001 394.75,67.5834 411.25,74.75C427.75,81.9167 442.583,91.4167 455.75,103.25C468.917,115.083 481.167,128.667 492.5,144C503.833,159.333 515.667,175.333 528,192L867.5,192C888.5,192 908.5,196.25 927.5,204.75C946.5,213.25 963.083,224.583 977.25,238.75C991.417,252.917 1002.75,269.5 1011.25,288.5C1019.75,307.5 1024,327.5 1024,348.5L1024,507C1014.67,495.333 1004.67,484.167 994,473.5C983.333,462.833 972,453 960,444L960,352C960,339 957.5,326.667 952.5,315C947.5,303.333 940.583,293.083 931.75,284.25C922.917,275.417 912.667,268.5 901,263.5C889.333,258.5 877,256 864,256L521.5,256C509.833,264 498.5,271.833 487.5,279.5C476.5,287.167 465.333,294 454,300C442.667,306 430.75,310.833 418.25,314.5C405.75,318.167 392,320 377,320L64,320L64,800C64,813 66.5,825.333 71.5,837C76.5,848.667 83.4167,858.917 92.25,867.75C101.083,876.583 111.333,883.5 123,888.5C134.667,893.5 147,896 160,896L404.5,896C410.167,907.333 416.25,918.333 422.75,929C429.25,939.667 436.333,950 444,960ZM377,256C386,256 394.417,254.833 402.25,252.5C410.083,250.167 417.5,247.083 424.5,243.25C431.5,239.417 438.417,235.167 445.25,230.5C452.083,225.833 459,221 466,216C458.333,205.667 450.833,195.25 443.5,184.75C436.167,174.25 428.167,164.833 419.5,156.5C410.833,148.167 401.083,141.333 390.25,136C379.417,130.667 366.667,128 352,128L160,128C147,128 134.667,130.5 123,135.5C111.333,140.5 101.083,147.417 92.25,156.25C83.4167,165.083 76.5,175.333 71.5,187C66.5,198.667 64,211 64,224L64,256ZM448,736C448,696.333 455.583,659 470.75,624C485.917,589 506.5,558.5 532.5,532.5C558.5,506.5 589,485.917 624,470.75C659,455.583 696.333,448 736,448C762.333,448 787.75,451.417 812.25,458.25C836.75,465.083 859.667,474.75 881,487.25C902.333,499.75 921.833,514.833 939.5,532.5C957.167,550.167 972.25,569.667 984.75,591C997.25,612.333 1006.92,635.25 1013.75,659.75C1020.58,684.25 1024,709.667 1024,736C1024,775.667 1016.42,813 1001.25,848C986.083,883 965.5,913.5 939.5,939.5C913.5,965.5 883,986.083 848,1001.25C813,1016.42 775.667,1024 736,1024C696,1024 658.5,1016.5 623.5,1001.5C588.5,986.5 558,966 532,940C506,914 485.5,883.5 470.5,848.5C455.5,813.5 448,776 448,736ZM768,768L864,768C872.667,768 880.167,764.833 886.5,758.5C892.833,752.167 896,744.667 896,736C896,727.333 892.833,719.833 886.5,713.5C880.167,707.167 872.667,704 864,704L768,704L768,608C768,599.333 764.833,591.833 758.5,585.5C752.167,579.167 744.667,576 736,576C727.333,576 719.833,579.167 713.5,585.5C707.167,591.833 704,599.333 704,608L704,704L608,704C599.333,704 591.833,707.167 585.5,713.5C579.167,719.833 576,727.333 576,736C576,744.667 579.167,752.167 585.5,758.5C591.833,764.833 599.333,768 608,768L704,768L704,864C704,872.667 707.167,880.167 713.5,886.5C719.833,892.833 727.333,896 736,896C744.667,896 752.167,892.833 758.5,886.5C764.833,880.167 768,872.667 768,864Z" fill="#ffffff"/>
</svg>