<svg width="12.5%" height="12.5%" viewBox="128 0 768 1024" xmlns="http://www.w3.org/2000/svg" xmlns:xlink="http://www.w3.org/1999/xlink">
  <path d="M219.5,71.5C210.833,71.5001 203.25,68.4167 196.75,62.25C190.25,56.0834 187,48.5 187,39.5C187,31.1667 189.417,24.4167 194.25,19.25C199.083,14.0834 205,10.0834 212,7.25C219,4.41669 226.5,2.5 234.5,1.5C242.5,0.5 249.667,0 256,0L320,0C328.667,0 336.167,3.16669 342.5,9.5C348.833,15.8334 352,23.3334 352,32C352,40.6667 348.833,48.1667 342.5,54.5C336.167,60.8334 328.667,64.0001 320,64L256,64C249.333,64.0001 243.167,65.2501 237.5,67.75C231.833,70.2501 225.833,71.5001 219.5,71.5ZM896,384L896,512C896,520.667 892.833,528.167 886.5,534.5C880.167,540.833 872.667,544 864,544C855.333,544 847.833,540.833 841.5,534.5C835.167,528.167 832,520.667 832,512L832,384L637.5,384C620.167,384 603.917,380.5 588.75,373.5C573.583,366.5 560.333,357.167 549,345.5C537.667,333.833 528.667,320.25 522,304.75C515.333,289.25 512,273 512,256L512,64L448,64C439.333,64.0001 431.833,60.8334 425.5,54.5C419.167,48.1667 416,40.6667 416,32C416,23.3334 419.167,15.8334 425.5,9.5C431.833,3.16669 439.333,0 448,0L512,0C526.333,0 540.333,2.83337 554,8.5C567.667,14.1667 579.5,22 589.5,32L864,306.5C874,316.5 881.833,328.333 887.5,342C893.167,355.667 896,369.667 896,384ZM128,224L128,128C128,121.667 128.5,114.5 129.5,106.5C130.5,98.5 132.417,91 135.25,84C138.083,77 142.083,71.0834 147.25,66.25C152.417,61.4167 159.167,59 167.5,59C176.5,59 184.083,62.25 190.25,68.75C196.417,75.25 199.5,82.8334 199.5,91.5C199.5,97.8334 198.25,103.833 195.75,109.5C193.25,115.167 192,121.333 192,128L192,224C192,232.667 188.833,240.167 182.5,246.5C176.167,252.833 168.667,256 160,256C151.333,256 143.833,252.833 137.5,246.5C131.167,240.167 128,232.667 128,224ZM576,256C576,265 577.667,273.417 581,281.25C584.333,289.083 588.833,295.833 594.5,301.5C600.167,307.167 606.917,311.667 614.75,315C622.583,318.333 631,320 640,320L787,320L576,109ZM128,608L128,416C128,407.333 131.167,399.833 137.5,393.5C143.833,387.167 151.333,384 160,384C168.667,384 176.167,387.167 182.5,393.5C188.833,399.833 192,407.333 192,416L192,608C192,616.667 188.833,624.167 182.5,630.5C176.167,636.833 168.667,640 160,640C151.333,640 143.833,636.833 137.5,630.5C131.167,624.167 128,616.667 128,608ZM896,768L896,896C896,902.333 895.5,909.5 894.5,917.5C893.5,925.5 891.583,933 888.75,940C885.917,947 881.917,952.917 876.75,957.75C871.583,962.583 864.833,965 856.5,965C847.5,965 839.917,961.75 833.75,955.25C827.583,948.75 824.5,941.167 824.5,932.5C824.5,926.167 825.75,920.167 828.25,914.5C830.75,908.833 832,902.667 832,896L832,768C832,759.333 835.167,751.833 841.5,745.5C847.833,739.167 855.333,736 864,736C872.667,736 880.167,739.167 886.5,745.5C892.833,751.833 896,759.333 896,768ZM199.5,932.5C199.5,941.167 196.417,948.75 190.25,955.25C184.083,961.75 176.5,965 167.5,965C159.167,965 152.417,962.583 147.25,957.75C142.083,952.917 138.083,947 135.25,940C132.417,933 130.5,925.5 129.5,917.5C128.5,909.5 128,902.333 128,896L128,800C128,791.333 131.167,783.833 137.5,777.5C143.833,771.167 151.333,768 160,768C168.667,768 176.167,771.167 182.5,777.5C188.833,783.833 192,791.333 192,800L192,896C192,902.667 193.25,908.833 195.75,914.5C198.25,920.167 199.5,926.167 199.5,932.5ZM416,992C416,1000.67 412.833,1008.17 406.5,1014.5C400.167,1020.83 392.667,1024 384,1024L256,1024C249.667,1024 242.5,1023.5 234.5,1022.5C226.5,1021.5 219,1019.58 212,1016.75C205,1013.92 199.083,1009.92 194.25,1004.75C189.417,999.583 187,992.833 187,984.5C187,975.5 190.25,967.917 196.75,961.75C203.25,955.583 210.833,952.5 219.5,952.5C225.833,952.5 231.833,953.75 237.5,956.25C243.167,958.75 249.333,960 256,960L384,960C392.667,960 400.167,963.167 406.5,969.5C412.833,975.833 416,983.333 416,992ZM804.5,952.5C813.167,952.5 820.75,955.583 827.25,961.75C833.75,967.917 837,975.5 837,984.5C837,992.833 834.583,999.583 829.75,1004.75C824.917,1009.92 819,1013.92 812,1016.75C805,1019.58 797.5,1021.5 789.5,1022.5C781.5,1023.5 774.333,1024 768,1024L640,1024C631.333,1024 623.833,1020.83 617.5,1014.5C611.167,1008.17 608,1000.67 608,992C608,983.333 611.167,975.833 617.5,969.5C623.833,963.167 631.333,960 640,960L768,960C774.667,960 780.833,958.75 786.5,956.25C792.167,953.75 798.167,952.5 804.5,952.5Z" fill="#ffffff"/>
</svg>